#!OML:ASF F:\VICON\USERDATA\INSTALL\Justin_Nancy\Justin_Nancy.ASF
:FULLY-SPECIFIED
:DEGREES
77
root 0.90808 17.8262 -15.5006 6.55974 -3.13388 0.953669
lowerback 4.75462 -0.332916 -2.45285
upperback -0.631929 -0.501097 2.70492
thorax -3.27633 -0.179436 4.21782
lowerneck -16.7195 -3.97685 -10.3775
upperneck 22.1697 -4.06231 5.42504
head 10.1726 -2.13003 3.09375
rclavicle 8.94531e-016 2.38542e-015
rhumerus -33.3697 -10.5391 -78.6237
rradius 35.1694
rwrist 3.54386
rhand -9.57436 13.3235
rfingers 7.12502
rthumb 16.3935 -16.0037
lclavicle 8.94531e-016 2.38542e-015
lhumerus -32.0599 9.6591 85.0205
lradius 30.8961
lwrist -5.03355
lhand -13.0925 24.978
lfingers 7.12502
lthumb 13.004 54.5527
rfemur -12.416 5.8095 19.0485
rtibia 22.5643
rfoot -11.267 -10.471
rtoes 5.19093
lfemur -10.5847 -3.36968 -19.9704
ltibia 19.2354
lfoot -11.9457 6.27535
ltoes -0.51442
78
root 0.905839 17.8252 -15.5033 6.59185 -3.05648 0.918578
lowerback 4.70689 -0.342621 -2.39836
upperback -0.63481 -0.51025 2.70368
thorax -3.25198 -0.185452 4.18559
lowerneck -16.7195 -4.01283 -10.3821
upperneck 22.2187 -4.1135 5.42661
head 10.1951 -2.15451 3.08846
rclavicle -1.14301e-014 -5.56597e-015
rhumerus -33.2904 -10.5127 -78.6831
rradius 35.1768
rwrist 3.46187
rhand -9.64662 13.1838
rfingers 7.12502
rthumb 16.3239 -16.1492
lclavicle -1.14301e-014 -5.56597e-015
lhumerus -32.0041 10.0066 84.7517
lradius 31.0323
lwrist -6.96084
lhand -10.3955 27.2442
lfingers 7.12502
lthumb 15.6027 56.6349
rfemur -12.4358 5.86963 19.0964
rtibia 22.569
rfoot -11.3152 -10.5195
rtoes 5.6805
lfemur -10.5948 -3.41048 -19.9079
ltibia 19.2524
lfoot -11.965 6.22425
ltoes -1.35952
79
root 0.904597 17.8263 -15.5041 6.64488 -3.01985 0.859751
lowerback 4.59357 -0.345075 -2.30749
upperback -0.616988 -0.507094 2.70377
thorax -3.17061 -0.187366 4.13199
lowerneck -16.5665 -4.04618 -10.3972
upperneck 22.0667 -4.17688 5.45891
head 10.1183 -2.18113 3.09268
rclavicle 2.16675e-014 9.54166e-015
rhumerus -33.1608 -10.4858 -78.7317
rradius 35.1342
rwrist 3.5074
rhand -9.61621 13.0354
rfingers 7.12502
rthumb 16.3532 -16.2952
lclavicle 2.16675e-014 9.54166e-015
lhumerus -31.8874 9.4502 85.0416
lradius 30.648
lwrist -4.75362
lhand -13.7595 25.1885
lfingers 7.12502
lthumb 12.361 54.803
rfemur -12.506 5.9069 19.1563
rtibia 22.5907
rfoot -11.3453 -10.5594
rtoes 6.01197
lfemur -10.6024 -3.3573 -19.8487
ltibia 19.2492
lfoot -11.9984 6.22895
ltoes -1.9209
80
root 0.906557 17.8273 -15.5031 6.68345 -3.0513 0.994509
lowerback 4.51505 -0.3291 -2.40541
upperback -0.57996 -0.49213 2.65684
thorax -3.08904 -0.180687 4.136
lowerneck -16.635 -4.02528 -10.3878
upperneck 22.066 -4.14096 5.45442
head 10.1273 -2.16322 3.09404
rclavicle 1.27222e-014 1.27222e-014
rhumerus -33.0084 -10.482 -78.7511
rradius 35.0882
rwrist 3.63108
rhand -9.49605 13.143
rfingers 7.12502
rthumb 16.4689 -16.178
lclavicle 1.27222e-014 1.27222e-014
lhumerus -31.7414 9.71911 84.8873
lradius 30.6615
lwrist -5.85422
lhand -12.1577 25.9109
lfingers 7.12502
lthumb 13.905 55.426
rfemur -12.5686 5.77229 18.9774
rtibia 22.6161
rfoot -11.422 -10.4058
rtoes 6.14843
lfemur -10.7047 -3.32465 -20.0103
ltibia 19.2276
lfoot -11.9028 6.2109
ltoes -1.73911
81
root 0.906157 17.8278 -15.5066 6.62211 -3.10413 1.06492
lowerback 4.59144 -0.304466 -2.49864
upperback -0.553079 -0.466343 2.63675
thorax -3.10609 -0.166444 4.1669
lowerneck -16.6885 -3.98012 -10.3311
upperneck 22.1026 -4.08176 5.42868
head 10.1431 -2.13388 3.0839
rclavicle 7.65321e-015 3.57812e-014
rhumerus -33 -10.3598 -78.7973
rradius 35.1734
rwrist 3.58966
rhand -9.41081 13.3428
rfingers 7.12502
rthumb 16.551 -15.9713
lclavicle 7.65321e-015 3.57812e-014
lhumerus -31.6956 10.0395 84.6984
lradius 30.7707
lwrist -7.14206
lhand -10.2439 27.1502
lfingers 7.12502
lthumb 15.7488 56.5295
rfemur -12.5112 5.69146 18.9023
rtibia 22.6025
rfoot -11.4308 -10.3077
rtoes 5.73693
lfemur -10.6982 -3.355 -20.0886
ltibia 19.2248
lfoot -11.8088 6.20761
ltoes -1.5066
82
root 0.905061 17.829 -15.5112 6.52292 -3.16054 1.07594
lowerback 4.70596 -0.269133 -2.54288
upperback -0.553019 -0.423265 2.63874
thorax -3.17417 -0.142809 4.19257
lowerneck -16.4926 -3.98028 -10.3465
upperneck 22.0189 -4.1007 5.44267
head 10.0784 -2.14389 3.08927
rclavicle 3.08116e-015 9.54166e-015
rhumerus -33.0974 -10.2182 -78.825
rradius 35.3577
rwrist 3.43262
rhand -9.41189 13.2116
rfingers 7.12502
rthumb 16.5499 -16.1026
lclavicle 3.08116e-015 9.54166e-015
lhumerus -31.722 10.0116 84.7006
lradius 30.7365
lwrist -7.14027
lhand -10.3635 27.1077
lfingers 7.12502
lthumb 15.6336 56.496
rfemur -12.4269 5.62679 18.9032
rtibia 22.6066
rfoot -11.3835 -10.2267
rtoes 5.36132
lfemur -10.5619 -3.27503 -20.1152
ltibia 19.1949
lfoot -11.7556 6.11825
ltoes -0.592345
83
root 0.905587 17.8295 -15.5136 6.56515 -3.18254 1.04705
lowerback 4.67496 -0.255672 -2.51547
upperback -0.58195 -0.402719 2.6487
thorax -3.18864 -0.132223 4.18583
lowerneck -16.3129 -3.98273 -10.4042
upperneck 21.9406 -4.11952 5.49603
head 10.0207 -2.15279 3.11579
rclavicle 4.96962e-016 -3.26007e-014
rhumerus -33.1282 -10.0608 -78.8722
rradius 35.5008
rwrist 3.27252
rhand -9.35633 12.9063
rfingers 7.12502
rthumb 16.6034 -16.4034
lclavicle 4.96962e-016 -3.26007e-014
lhumerus -31.7568 9.91374 84.7337
lradius 30.7656
lwrist -6.96431
lhand -10.5378 27.0157
lfingers 7.12502
lthumb 15.4657 56.417
rfemur -12.498 5.61362 18.9156
rtibia 22.6136
rfoot -11.43 -10.2193
rtoes 4.98045
lfemur -10.5778 -3.29283 -20.0909
ltibia 19.1543
lfoot -11.7764 6.18083
ltoes 0.0250366
84
root 0.906886 17.8292 -15.5172 6.68191 -3.07111 1.03395
lowerback 4.63609 -0.279333 -2.44026
upperback -0.620308 -0.429418 2.63867
thorax -3.20451 -0.146084 4.13449
lowerneck -16.3872 -3.9769 -10.436
upperneck 21.9996 -4.11182 5.55915
head 10.0571 -2.14449 3.14507
rclavicle -1.88845e-015 -1.59028e-015
rhumerus -33.173 -9.92922 -78.9281
rradius 35.6853
rwrist 3.17837
rhand -9.28312 12.4747
rfingers 7.12502
rthumb 16.6739 -16.8292
lclavicle -1.88845e-015 -1.59028e-015
lhumerus -31.7854 9.84002 84.7396
lradius 30.8589
lwrist -6.91813
lhand -10.5061 27.0438
lfingers 7.12502
lthumb 15.4963 56.4428
rfemur -12.6145 5.54254 18.9131
rtibia 22.6021
rfoot -11.4704 -10.2599
rtoes 5.08656
lfemur -10.7133 -3.37338 -20.0502
ltibia 19.1189
lfoot -11.8148 6.18195
ltoes -0.167764
85
root 0.910089 17.8289 -15.5199 6.66359 -2.9883 1.08303
lowerback 4.66481 -0.299512 -2.42164
upperback -0.585232 -0.456606 2.61767
thorax -3.18217 -0.16113 4.10394
lowerneck -16.5024 -3.97571 -10.4428
upperneck 22.0514 -4.09509 5.55294
head 10.096 -2.13707 3.14614
rclavicle 7.35503e-015 3.49861e-014
rhumerus -33.1949 -9.73289 -79.0023
rradius 35.8845
rwrist 3.06701
rhand -9.41649 12.1784
rfingers 7.12502
rthumb 16.5455 -17.1362
lclavicle 7.35503e-015 3.49861e-014
lhumerus -31.7752 9.89738 84.7286
lradius 30.8788
lwrist -6.98615
lhand -10.6531 26.6494
lfingers 7.12502
lthumb 15.3546 56.0593
rfemur -12.5857 5.34433 18.8603
rtibia 22.5892
rfoot -11.4829 -10.1675
rtoes 5.31483
lfemur -10.6894 -3.41883 -20.1044
ltibia 19.096
lfoot -11.7929 6.13041
ltoes -0.485673
86
root 0.911819 17.8267 -15.5198 6.60847 -3.1034 1.0863
lowerback 4.64969 -0.251182 -2.42205
upperback -0.529669 -0.392477 2.61444
thorax -3.12187 -0.131161 4.0954
lowerneck -16.4556 -3.98965 -10.453
upperneck 22.0243 -4.10711 5.51701
head 10.0782 -2.14778 3.13318
rclavicle 5.96354e-015 2.22639e-014
rhumerus -33.1964 -9.55664 -79.0459
rradius 36.0157
rwrist 2.97451
rhand -9.40071 12.249
rfingers 7.12502
rthumb 16.5607 -17.0643
lclavicle 5.96354e-015 2.22639e-014
lhumerus -31.7028 9.80044 84.819
lradius 30.6695
lwrist -6.36541
lhand -11.9025 25.6861
lfingers 7.12502
lthumb 14.1509 55.1842
rfemur -12.5543 5.29149 18.8368
rtibia 22.5846
rfoot -11.4283 -9.97173
rtoes 5.46749
lfemur -10.6302 -3.37468 -20.1406
ltibia 19.1026
lfoot -11.8093 6.2227
ltoes -0.986684
87
root 0.910095 17.8242 -15.5198 6.58012 -3.20302 0.977969
lowerback 4.63844 -0.196884 -2.34594
upperback -0.493413 -0.314655 2.65294
thorax -3.08511 -0.0945683 4.08631
lowerneck -16.4747 -4.02736 -10.5115
upperneck 22.0951 -4.14047 5.50377
head 10.1119 -2.17032 3.13425
rclavicle -1.21259e-014 -7.15625e-015
rhumerus -33.1415 -9.47861 -79.042
rradius 36.0261
rwrist 2.95101
rhand -9.36143 12.3953
rfingers 7.12502
rthumb 16.5985 -16.9149
lclavicle -1.21259e-014 -7.15625e-015
lhumerus -31.6192 9.74742 84.8911
lradius 30.5028
lwrist -6.03243
lhand -12.7132 25.2416
lfingers 7.12502
lthumb 13.3696 54.7926
rfemur -12.5485 5.35464 18.9584
rtibia 22.5756
rfoot -11.3391 -9.95023
rtoes 4.9878
lfemur -10.6246 -3.40452 -20.0238
ltibia 19.1325
lfoot -11.8104 6.35983
ltoes -0.948231
88
root 0.906486 17.8236 -15.5235 6.58152 -3.15536 0.83958
lowerback 4.6988 -0.194844 -2.24352
upperback -0.493922 -0.305049 2.70852
thorax -3.12066 -0.0904003 4.08616
lowerneck -16.4886 -4.05129 -10.5529
upperneck 22.117 -4.15996 5.49727
head 10.1253 -2.18363 3.13619
rclavicle 9.34288e-015 4.6118e-014
rhumerus -33.0924 -9.34723 -79.0605
rradius 36.0491
rwrist 2.84624
rhand -9.45655 12.348
rfingers 7.12502
rthumb 16.5069 -16.9698
lclavicle 9.34288e-015 4.6118e-014
lhumerus -31.6317 10.0831 84.6874
lradius 30.8609
lwrist -7.96713
lhand -9.67372 27.5595
lfingers 7.12502
lthumb 16.2978 56.8946
rfemur -12.5262 5.47236 19.1402
rtibia 22.5377
rfoot -11.2941 -10.144
rtoes 4.87658
lfemur -10.638 -3.43462 -19.8339
ltibia 19.1941
lfoot -11.8835 6.32621
ltoes -0.623178
